# File created by Blade
# Date/Time:  Wed Jan 28 16:58:26 2015
#---------------------------------------------------------
:version 1.10
:name HOM
:units
  mass 1.0
  length 1.000000
  angle deg
:documentation
     Acclaim Skeleton File
:root
   axis xyz
   order TX TY TZ RX RY RZ
   position 0.000000 0.000000 0.000000
   orientation 0 0 0
:bonedata
   begin
      id 1
      name Spine_dum
      direction 0.000000 1.000000 0.000000
      length 9.621153
      axis 0.0 0.0 0.0 xyz
   end
   begin
      id 2
      name LeftUpLeg_dum
      direction 1.000000 0.000000 0.000000
      length 2.700595
      axis 0.0 0.0 0.0 xyz
   end
   begin
      id 3
      name RightUpLeg_dum
      direction -1.000000 0.000000 0.000000
      length 2.700595
      axis 0.0 0.0 0.0 xyz
   end
   begin
      id 4
      name Spine
      direction 0.000000 1.000000 0.000000
      length 0.000000
      axis 0.0 0.0 0.0 xyz
      dof rx ry rz
   end
   begin
      id 5
      name Spine_dum1
      direction 0.000000 1.000000 0.000000
      length 12.771951
      axis 0.0 0.0 0.0 xyz
   end
   begin
      id 6
      name Spine_dum2
      direction 0.000000 1.000000 0.000000
      length 7.400569
      axis 0.0 0.0 0.0 xyz
   end
   begin
      id 7
      name Spine_dum3
      direction 0.000000 1.000000 0.000000
      length 7.400569
      axis 0.0 0.0 0.0 xyz
   end
   begin
      id 8
      name Head
      direction 0.000000 1.000000 0.000000
      length 4.527550
      axis 0.0 0.0 0.0 xyz
      dof rx ry rz
   end
   begin
      id 9
      name LeftShoulder
      direction 1.000000 0.000000 0.000000
      length 8.349299
      axis 0.0 0.0 -90.0 xyz
      dof rx ry rz
   end
   begin
      id 10
      name LeftArm
      direction 1.000000 0.000000 0.000000
      length 11.334839
      axis 0.0 0.0 -90.0 xyz
      dof rx ry rz
   end
   begin
      id 11
      name LeftForeArm
      direction 1.000000 0.000000 0.000000
      length 9.694182
      axis 0.0 0.0 -90.0 xyz
      dof ry rz rx
   end
   begin
      id 12
      name LeftHand
      direction 0.000000 0.000000 0.000000
      length 0.000000
      axis 0.0 0.0 -90.0 xyz
      dof rx ry rz
   end
   begin
      id 13
      name LeftHand_dum1
      direction 0.000000 0.000000 0.000000
      length 0.000000
      axis 0.0 0.0 -90.0 xyz
   end
   begin
      id 14
      name LeftHand_dum2
      direction 1.000000 0.000000 0.000000
      length 3.937000
      axis 0.0 0.0 -90.0 xyz
   end
   begin
      id 15
      name LeftHandThumb1
      direction 0.000000 0.000000 1.000000
      length 3.937000
      axis 0.0 0.0 -90.0 xyz
      dof rx rz ry
   end
   begin
      id 16
      name RightShoulder
      direction -1.000000 0.000000 0.000000
      length 8.349299
      axis 0.0 0.0 90.0 xyz
      dof rx ry rz
   end
   begin
      id 17
      name RightArm
      direction -1.000000 0.000000 0.000000
      length 11.334839
      axis 0.0 0.0 90.0 xyz
      dof rx ry rz
   end
   begin
      id 18
      name RightForeArm
      direction -1.000000 0.000000 0.000000
      length 9.694182
      axis 0.0 0.0 90.0 xyz
      dof ry rz rx
   end
   begin
      id 19
      name RightHand
      direction 0.000000 0.000000 0.000000
      length 0.000000
      axis 0.0 0.0 90.0 xyz
      dof rx ry rz
   end
   begin
      id 20
      name RightHand_dum1
      direction 0.000000 0.000000 0.000000
      length 0.000000
      axis 0.0 0.0 90.0 xyz
   end
   begin
      id 21
      name RightHand_dum2
      direction -1.000000 0.000000 0.000000
      length 3.937000
      axis 0.0 0.0 90.0 xyz
   end
   begin
      id 22
      name RightHandThumb1
      direction 0.000000 0.000000 1.000000
      length 3.937000
      axis 0.0 0.0 90.0 xyz
      dof rx rz ry
   end
   begin
      id 23
      name LeftUpLeg
      direction 0.000000 -1.000000 0.000000
      length 16.757176
      axis 0.0 0.0 0.0 xyz
      dof rx ry rz
   end
   begin
      id 24
      name LeftLeg
      direction 0.000000 -1.000000 0.000000
      length 16.759153
      axis 0.0 0.0 0.0 xyz
      dof rx ry rz
   end
   begin
      id 25
      name LeftFoot
      direction 0.000000 -0.258819 0.965926
      length 5.841289
      axis 15.0 0.0 0.0 xyz
      dof rx ry rz
   end
   begin
      id 26
      name LeftToeBase
      direction 0.000000 0.000000 1.000000
      length 2.952750
      axis 0.0 0.0 0.0 xyz
      dof rx ry rz
   end
   begin
      id 27
      name RightUpLeg
      direction 0.000000 -1.000000 0.000000
      length 16.757176
      axis 0.0 0.0 0.0 xyz
      dof rx ry rz
   end
   begin
      id 28
      name RightLeg
      direction 0.000000 -1.000000 0.000000
      length 16.759153
      axis 0.0 0.0 0.0 xyz
      dof rx ry rz
   end
   begin
      id 29
      name RightFoot
      direction 0.000000 -0.258819 0.965926
      length 5.841289
      axis 15.0 0.0 0.0 xyz
      dof rx ry rz
   end
   begin
      id 30
      name RightToeBase
      direction 0.000000 0.000000 1.000000
      length 2.952750
      axis 0.0 0.0 0.0 xyz
      dof rx ry rz
   end
:hierarchy
   begin
      root Spine_dum LeftUpLeg_dum RightUpLeg_dum
      Spine_dum Spine
      LeftUpLeg_dum LeftUpLeg
      RightUpLeg_dum RightUpLeg
      Spine Spine_dum1 Spine_dum2 Spine_dum3
      Spine_dum1 Head
      Spine_dum2 LeftShoulder
      Spine_dum3 RightShoulder
      LeftShoulder LeftArm
      LeftArm LeftForeArm
      LeftForeArm LeftHand
      LeftHand LeftHand_dum1 LeftHand_dum2
      LeftHand_dum1 LeftHandThumb1
      RightShoulder RightArm
      RightArm RightForeArm
      RightForeArm RightHand
      RightHand RightHand_dum1 RightHand_dum2
      RightHand_dum1 RightHandThumb1
      LeftUpLeg LeftLeg
      LeftLeg LeftFoot
      LeftFoot LeftToeBase
      RightUpLeg RightLeg
      RightLeg RightFoot
      RightFoot RightToeBase
   end

# File created by Blade
# Date/Time:  Wed Jan 28 16:58:32 2015
# Frame Rate: 120.000 fps
#------------------------------------------------------
:FULLY-SPECIFIED
:DEGREES
2281
root 10.745196 36.972318 -17.974198 214.128251 14.608565 -148.978298
Spine 19.781530 5.396008 1.993705
Head 23.905322 1.502663 43.619621
LeftShoulder -11.314748 -1.135767 34.073853
LeftArm 53.358743 -60.104428 -76.837052
LeftForeArm -34.473793 -0.000000 121.140968
LeftHand -16.385547 0.000000 30.623047
LeftHandThumb1 -26.253704 0.000000 33.147579
RightShoulder -19.188835 -7.530901 0.820639
RightArm 21.538247 -27.142797 62.773545
RightForeArm -17.833291 -0.000000 71.725208
RightHand -12.425229 0.000000 5.413373
RightHandThumb1 -24.326973 -0.000000 -32.862282
LeftUpLeg -26.320585 19.250986 17.814570
LeftLeg 6.245979 -0.000000 -0.000000
LeftFoot -14.290709 21.036704 -9.342518
LeftToeBase 13.144880 -0.000000 -0.000000
RightUpLeg 1.189657 -17.556287 -12.216529
RightLeg 65.204212 -0.000000 -0.000000
RightFoot 11.323481 -10.340633 28.390205
RightToeBase -5.350229 -0.000000 0.000000
2282
root 10.765284 37.007469 -17.984444 214.395842 14.537247 -148.455925
Spine 19.766701 5.580981 2.464929
Head 23.818699 1.413383 43.660011
LeftShoulder -11.456045 -1.040239 34.036633
LeftArm 53.696598 -60.224272 -77.220516
LeftForeArm -34.669437 0.000000 121.238945
LeftHand -16.412150 -0.000000 30.740202
LeftHandThumb1 -26.253704 0.000000 33.147579
RightShoulder -19.158237 -7.534298 0.758948
RightArm 21.478816 -27.076890 62.699385
RightForeArm -17.940403 -0.000000 71.611117
RightHand -12.167503 -0.000000 5.683846
RightHandThumb1 -24.326973 -0.000000 -32.862282
LeftUpLeg -26.277535 19.423293 18.352591
LeftLeg 6.145426 -0.000000 -0.000000
LeftFoot -14.221145 21.103657 -9.493385
LeftToeBase 13.125598 -0.000000 -0.000000
RightUpLeg 2.663696 -17.552228 -13.543394
RightLeg 63.456515 -0.000000 -0.000000
RightFoot 11.061697 -10.889289 28.586810
RightToeBase -4.745624 -0.000000 0.000000
2283
root 10.786938 37.040900 -17.992851 214.649030 14.474843 -147.941862
Spine 19.767790 5.789560 2.938935
Head 23.743326 1.379197 43.635133
LeftShoulder -11.529159 -0.992204 34.028562
LeftArm 53.912242 -60.408474 -77.541652
LeftForeArm -34.768690 0.000000 121.280508
LeftHand -16.421963 0.000000 30.951696
LeftHandThumb1 -26.253704 0.000000 33.147579
RightShoulder -19.170561 -7.628533 0.719515
RightArm 21.564161 -27.012192 62.563425
RightForeArm -18.063468 -0.000000 71.480461
RightHand -11.929000 -0.000000 5.857107
RightHandThumb1 -24.326973 -0.000000 -32.862282
LeftUpLeg -26.240280 19.650411 18.859632
LeftLeg 6.062500 -0.000000 -0.000000
LeftFoot -14.134269 21.124186 -9.591507
LeftToeBase 13.095736 -0.000000 -0.000000
RightUpLeg 4.121332 -17.535297 -14.875379
RightLeg 61.682680 -0.000000 -0.000000
RightFoot 11.095954 -11.380871 28.304017
RightToeBase -4.789112 -0.000000 0.000000
2284
root 10.811889 37.073588 -18.000460 214.895728 14.411143 -147.420153
Spine 19.770050 6.014423 3.413441
Head 23.654906 1.322935 43.638153
LeftShoulder -11.586769 -0.925142 34.038023
LeftArm 54.215965 -60.593314 -77.956156
LeftForeArm -34.858346 -0.000000 121.322435
LeftHand -16.461844 -0.000000 31.039458
LeftHandThumb1 -26.253704 0.000000 33.147579
RightShoulder -19.105116 -7.506761 0.584378
RightArm 21.362862 -27.135629 62.555296
RightForeArm -17.728712 -0.000000 71.482536
RightHand -12.353378 -0.000000 5.456910
RightHandThumb1 -24.326973 -0.000000 -32.862282
LeftUpLeg -26.214287 19.923320 19.357056
LeftLeg 6.006875 -0.000000 -0.000000
LeftFoot -14.072691 21.112550 -9.697868
LeftToeBase 13.114483 -0.000000 -0.000000
RightUpLeg 5.583423 -17.445137 -16.166717
RightLeg 59.842093 -0.000000 -0.000000
RightFoot 11.072056 -11.987619 28.268665
RightToeBase -4.762101 -0.000000 0.000000
2285
root 10.839462 37.106053 -18.009623 215.091493 14.356367 -146.883240
Spine 19.851695 6.208647 3.891464
Head 23.594588 1.283563 43.667497
LeftShoulder -11.690569 -0.973739 34.074694
LeftArm 54.283516 -60.738872 -78.173757
LeftForeArm -34.851558 0.000000 121.315455
LeftHand -16.539492 -0.000000 31.238514
LeftHandThumb1 -26.253704 0.000000 33.147579
RightShoulder -19.049606 -7.551213 0.522244
RightArm 21.448906 -27.145364 62.400659
RightForeArm -17.562601 -0.000000 71.419861
RightHand -12.462962 -0.000000 5.360415
RightHandThumb1 -24.326973 -0.000000 -32.862282
LeftUpLeg -26.122233 20.189081 19.901658
LeftLeg 5.970845 -0.000000 -0.000000
LeftFoot -14.028341 21.062064 -9.813003
LeftToeBase 13.137226 -0.000000 -0.000000
RightUpLeg 7.090440 -17.197663 -17.400370
RightLeg 57.940168 -0.000000 -0.000000
RightFoot 10.953845 -12.698125 28.662848
RightToeBase -4.576720 -0.000000 0.000000
2286
root 10.881395 37.139247 -18.023230 215.235481 14.238313 -146.349636
Spine 19.950044 6.404424 4.386706
Head 23.552739 1.267835 43.737375
LeftShoulder -11.702756 -0.938245 34.152741
LeftArm 54.476287 -60.956121 -78.496499
LeftForeArm -34.963184 -0.000000 121.287312
LeftHand -16.531000 0.000000 31.178537
LeftHandThumb1 -26.253704 0.000000 33.147579
RightShoulder -19.025658 -7.597409 0.503070
RightArm 21.491084 -27.107938 62.281442
RightForeArm -17.624658 -0.000000 71.376617
RightHand -12.492853 0.000000 5.489926
RightHandThumb1 -24.326973 -0.000000 -32.862282
LeftUpLeg -25.956615 20.371657 20.534167
LeftLeg 5.903554 -0.000000 -0.000000
LeftFoot -14.003250 20.980467 -10.003524
LeftToeBase 13.159181 -0.000000 -0.000000
RightUpLeg 8.690017 -16.874520 -18.535129
RightLeg 55.946771 -0.000000 -0.000000
RightFoot 10.861578 -13.448464 29.037328
RightToeBase -4.159936 -0.000000 0.000000
2287
root 10.906451 37.167874 -18.029764 215.412546 14.185960 -145.885454
Spine 20.035904 6.573904 4.770581
Head 23.447265 1.270586 43.803757
LeftShoulder -11.823046 -1.028786 34.221898
LeftArm 54.593148 -61.093597 -78.720653
LeftForeArm -35.012752 0.000000 121.224848
LeftHand -16.706664 -0.000000 31.304842
LeftHandThumb1 -26.253704 0.000000 33.147579
RightShoulder -18.993027 -7.541619 0.452803
RightArm 21.543536 -27.142476 62.137978
RightForeArm -17.690079 0.000000 71.331868
RightHand -12.496452 0.000000 5.689214
RightHandThumb1 -24.326973 -0.000000 -32.862282
LeftUpLeg -25.842132 20.480779 21.075835
LeftLeg 5.853459 -0.000000 -0.000000
LeftFoot -14.013857 20.994079 -10.214871
LeftToeBase 13.232421 -0.000000 -0.000000
RightUpLeg 10.132582 -16.464375 -19.724902
RightLeg 54.042445 -0.000000 -0.000000
RightFoot 10.794196 -14.220332 29.531815
RightToeBase -4.119401 -0.000000 0.000000
2288
root 10.932287 37.196977 -18.032514 215.604902 14.121278 -145.415541
Spine 20.075084 6.757903 5.176128
Head 23.377092 1.229219 43.884368
LeftShoulder -11.857944 -1.061958 34.285781
LeftArm 54.743633 -61.284063 -78.958909
LeftForeArm -35.199631 -0.000000 121.118167
LeftHand -16.564971 -0.000000 31.234033
LeftHandThumb1 -26.253704 0.000000 33.147579
RightShoulder -18.942089 -7.502051 0.384391
RightArm 21.557794 -27.152055 62.028423
RightForeArm -17.694789 -0.000000 71.289468
RightHand -12.421401 -0.000000 5.875230
RightHandThumb1 -24.326973 -0.000000 -32.862282
LeftUpLeg -25.808222 20.720055 21.570823
LeftLeg 5.877470 -0.000000 -0.000000
LeftFoot -14.031229 20.844349 -10.406782
LeftToeBase 13.190903 -0.000000 -0.000000
RightUpLeg 11.513877 -15.966022 -20.812721
RightLeg 52.152230 -0.000000 -0.000000
RightFoot 10.781809 -14.991133 29.885107
RightToeBase -4.025945 -0.000000 0.000000
2289
root 10.958270 37.226235 -18.031916 215.807911 14.042423 -144.960841
Spine 20.105025 6.908216 5.563937
Head 23.289644 1.232820 43.974407
LeftShoulder -11.926918 -1.031582 34.338080
LeftArm 55.136919 -61.472766 -79.433876
LeftForeArm -35.357694 -0.000000 121.022669
LeftHand -16.649111 -0.000000 31.008305
LeftHandThumb1 -26.253704 0.000000 33.147579
RightShoulder -18.914030 -7.426736 0.336287
RightArm 21.605170 -27.236246 61.862939
RightForeArm -17.545373 0.000000 71.257202
RightHand -12.481531 -0.000000 5.782464
RightHandThumb1 -24.326973 -0.000000 -32.862282
LeftUpLeg -25.795853 20.952643 22.057279
LeftLeg 5.898546 -0.000000 -0.000000
LeftFoot -14.090871 20.676452 -10.678106
LeftToeBase 13.351737 -0.000000 -0.000000
RightUpLeg 12.842120 -15.426054 -21.828510
RightLeg 50.275934 -0.000000 -0.000000
RightFoot 10.831709 -15.657980 29.829817
RightToeBase -3.697328 -0.000000 0.000000
2290
root 10.983629 37.255885 -18.027413 216.009606 13.942356 -144.507209
Spine 20.138692 7.062135 6.002905
Head 23.190034 1.204071 43.995605
LeftShoulder -11.963448 -1.155642 34.365409
LeftArm 55.244798 -61.606878 -79.595114
LeftForeArm -35.404581 -0.000000 120.882873
LeftHand -16.666187 -0.000000 31.163525
LeftHandThumb1 -26.253704 0.000000 33.147579
RightShoulder -18.913964 -7.392632 0.283172
RightArm 21.709136 -27.282023 61.669558
RightForeArm -17.563881 -0.000000 71.254515
RightHand -12.483897 -0.000000 5.820030
RightHandThumb1 -24.326973 -0.000000 -32.862282
LeftUpLeg -25.815780 21.186474 22.546532
LeftLeg 5.953443 -0.000000 -0.000000
LeftFoot -14.165047 20.479575 -11.006633
LeftToeBase 13.491181 -0.000000 -0.000000
RightUpLeg 14.124162 -14.836385 -22.757843
RightLeg 48.452877 -0.000000 -0.000000
RightFoot 10.834336 -16.363031 29.730011
RightToeBase -3.589963 -0.000000 0.000000
2291
root 11.008028 37.284513 -18.021293 216.212764 13.852919 -144.091619
Spine 20.168701 7.157469 6.379978
Head 23.095822 1.120625 44.037997
LeftShoulder -12.066511 -1.276955 34.391341
LeftArm 55.463944 -61.716854 -79.876088
LeftForeArm -35.479865 0.000000 120.745947
LeftHand -16.787038 -0.000000 30.948676
LeftHandThumb1 -26.253704 0.000000 33.147579
RightShoulder -18.882076 -7.392923 0.223617
RightArm 21.854262 -27.290077 61.528599
RightForeArm -17.690065 -0.000000 71.248033
RightHand -12.265428 -0.000000 5.968913
RightHandThumb1 -24.326973 -0.000000 -32.862282
LeftUpLeg -25.864641 21.453443 22.969273
LeftLeg 6.023522 -0.000000 -0.000000
LeftFoot -14.319855 20.232246 -11.435965
LeftToeBase 13.902864 -0.000000 -0.000000
RightUpLeg 15.332985 -14.269331 -23.702060
RightLeg 46.674401 -0.000000 -0.000000
RightFoot 10.983416 -17.056132 29.340267
RightToeBase -3.364820 -0.000000 0.000000
2292
root 11.031900 37.313516 -18.010635 216.446664 13.716006 -143.695390
Spine 20.132423 7.214760 6.760546
Head 23.001950 1.135827 44.100622
LeftShoulder -12.156508 -1.271860 34.423585
LeftArm 55.896926 -61.823784 -80.391004
LeftForeArm -35.534150 0.000000 120.616748
LeftHand -16.855222 -0.000000 30.994874
LeftHandThumb1 -26.253704 0.000000 33.147579
RightShoulder -18.869700 -7.317794 0.177897
RightArm 21.931993 -27.316874 61.366988
RightForeArm -17.756688 -0.000000 71.253116
RightHand -12.097424 -0.000000 6.191658
RightHandThumb1 -24.326973 -0.000000 -32.862282
LeftUpLeg -25.996189 21.720895 23.370904
LeftLeg 6.105555 -0.000000 -0.000000
LeftFoot -14.291150 19.978310 -11.623270
LeftToeBase 13.797730 -0.000000 -0.000000
RightUpLeg 16.440364 -13.795022 -24.620649
RightLeg 45.027198 -0.000000 -0.000000
RightFoot 10.901653 -17.737296 29.099828
RightToeBase -3.009929 -0.000000 0.000000
2293
root 11.055903 37.340646 -17.999650 216.666397 13.582463 -143.312128
Spine 20.083348 7.308488 7.148005
Head 22.906263 1.102245 44.158907
LeftShoulder -12.206730 -1.252136 34.437909
LeftArm 56.469194 -61.865339 -81.024574
LeftForeArm -35.582492 -0.000000 120.526087
LeftHand -16.908583 -0.000000 30.823172
LeftHandThumb1 -26.253704 0.000000 33.147579
RightShoulder -18.840652 -7.219390 0.107009
RightArm 21.887955 -27.333771 61.282508
RightForeArm -17.744297 -0.000000 71.391804
RightHand -12.481305 -0.000000 6.367307
RightHandThumb1 -24.326973 -0.000000 -32.862282
LeftUpLeg -26.104676 21.956166 23.770698
LeftLeg 6.170779 -0.000000 -0.000000
LeftFoot -14.259952 19.806917 -11.761991
LeftToeBase 13.841768 -0.000000 -0.000000
RightUpLeg 17.500862 -13.259590 -25.458102
RightLeg 43.486676 -0.000000 -0.000000
RightFoot 10.913807 -18.318409 28.392852
RightToeBase -3.401447 -0.000000 0.000000
